HIERARCHY
ROOT hip
{
	OFFSET 0.000000 0.000000 0.000000 
	CHANNELS 6 Xposition Yposition Zposition Xrotation Zrotation Yrotation
	JOINT abdomen
	{
		OFFSET 0.000000 3.402643 0.000000 
		CHANNELS 3 Xrotation Zrotation Yrotation
		JOINT chest
		{
			OFFSET 0.000000 8.438565 -0.680529 
			CHANNELS 3 Xrotation Zrotation Yrotation
			JOINT neck
			{
				OFFSET 0.000000 10.207942 -0.272212 
				CHANNELS 3 Xrotation Zrotation Yrotation
				JOINT head
				{
					OFFSET 0.000000 3.130431 0.000000 
					CHANNELS 3 Xrotation Zrotation Yrotation
					End Site
					{
						OFFSET 0.000000 3.130435 0.000000 
					}
				}
			}
			JOINT lCollar
			{
				OFFSET 3.470700 6.669187 -0.816635 
				CHANNELS 3 Yrotation Zrotation Xrotation
				JOINT lShldr
				{
					OFFSET 3.198488 0.000000 0.000000 
					CHANNELS 3 Zrotation Yrotation Xrotation
					JOINT lForeArm
					{
						OFFSET 10.139888 0.000000 0.000000 
						CHANNELS 3 Yrotation Zrotation Xrotation
						JOINT lHand
						{
							OFFSET 8.370511 0.000000 0.000000 
							CHANNELS 3 Zrotation Yrotation Xrotation
							End Site
							{
								OFFSET 4.083176 0.000000 0.000000 
							}
						}
					}
				}
			}
			JOINT rCollar
			{
				OFFSET -3.470700 6.669187 -0.816635 
				CHANNELS 3 Yrotation Zrotation Xrotation
				JOINT rShldr
				{
					OFFSET -3.198488 0.000000 0.000000 
					CHANNELS 3 Zrotation Yrotation Xrotation
					JOINT rForeArm
					{
						OFFSET -10.139888 0.000000 0.000000 
						CHANNELS 3 Yrotation Zrotation Xrotation
						JOINT rHand
						{
							OFFSET -8.370511 0.000000 0.000000 
							CHANNELS 3 Zrotation Yrotation Xrotation
							End Site
							{
								OFFSET -4.083176 0.000000 0.000000 
							}
						}
					}
				}
			}
		}
	}
	JOINT lThigh
	{
		OFFSET 5.308129 -1.633274 1.361059 
		CHANNELS 3 Xrotation Zrotation Yrotation
		JOINT lShin
		{
			OFFSET -2.041588 -20.007561 0.000000 
			CHANNELS 3 Xrotation Zrotation Yrotation
			JOINT lFoot
			{
				OFFSET 0.000000 -19.190928 -1.224953 
				CHANNELS 3 Xrotation Yrotation Zrotation
				End Site
				{
					OFFSET 0.000000 -2.449906 4.627600 
				}
			}
		}
	}
	JOINT rThigh
	{
		OFFSET -5.308129 -1.633274 1.361059 
		CHANNELS 3 Xrotation Zrotation Yrotation
		JOINT rShin
		{
			OFFSET 2.041588 -20.007561 0.000000 
			CHANNELS 3 Xrotation Zrotation Yrotation
			JOINT rFoot
			{
				OFFSET 0.000000 -19.190928 -1.224953 
				CHANNELS 3 Xrotation Yrotation Zrotation
				End Site
				{
					OFFSET 0.000000 -2.449906 4.627600 
				}
			}
		}
	}
}
MOTION
Frames: 6
Frame Time: 0.033333
42.444115 52.547947 37.440861 -5.448133 -0.442065 -137.908691 0.000000 0.000000 0.000000 3.038665 1.337866 -0.351467 7.568035 2.050760 0.263853 23.357931 -5.594450 1.216593 -3.984457 2.926710 3.492960 -68.464378 6.961585 5.182755 -43.021156 -6.750482 16.992601 5.916311 13.009480 -3.136644 3.899040 6.001116 3.113375 55.305305 -6.051734 16.476725 40.789440 6.806309 18.739660 -6.296426 -10.810958 -3.202353 -15.681255 1.972151 4.258479 16.129419 -3.475362 20.955015 1.859831 0.087520 3.031474 -3.036184 -8.169098 -7.933529 5.875286 4.993650 -16.723524 -4.235209 -0.065355 0.989349 
42.583855 52.548775 37.265377 -5.419713 -0.412812 -133.865692 0.000000 0.000000 0.000000 3.291867 1.162075 -0.439363 7.664117 1.855468 -0.058563 23.351782 -5.370247 1.019392 -4.048871 2.672773 3.715993 -69.676041 7.809020 6.085721 -43.349888 -6.987895 16.675093 5.262521 13.396541 -3.190386 3.512083 5.774196 3.397931 55.903366 -5.537678 16.289824 40.788273 6.659703 19.542364 -5.537068 -10.366803 -3.272624 -15.407925 1.396338 4.683042 16.236759 -3.654243 25.022366 1.030335 0.072803 3.877997 -1.815449 -7.726152 -8.033781 5.155171 4.626633 -20.737099 -4.644886 -0.085294 1.363848 
42.647343 52.536869 37.137856 -5.388348 0.074851 -129.697205 0.000000 0.000000 0.000000 3.289961 1.220655 -0.507905 7.589673 2.040938 -0.498079 23.476454 -5.126618 0.656915 -4.186146 2.819765 3.725595 -71.267563 8.521066 6.606151 -42.816681 -7.242841 16.546164 3.711960 15.091704 -3.277058 3.250922 5.738586 3.389192 56.084999 -5.146794 16.655113 40.705627 6.812753 19.116915 -5.502885 -10.158586 -3.280789 -15.305855 0.946205 4.805140 15.737526 -3.620214 29.007046 0.578715 0.048973 4.552659 -0.566861 -7.050959 -7.971215 3.779715 4.347997 -25.097673 -4.747383 -0.086952 1.713686 
42.694794 52.535774 37.059467 -5.474338 0.860063 -125.948044 0.000000 0.000000 0.000000 3.151702 1.318302 -0.537192 7.428767 2.021360 -0.635060 23.533747 -4.609272 0.381982 -4.042999 2.838284 3.590006 -72.587738 9.835153 7.054112 -42.969585 -7.333391 17.146444 3.876318 15.093405 -3.265415 3.367172 5.648582 3.251100 56.122997 -4.707966 17.245268 40.362278 7.019752 19.762976 -5.938791 -9.374160 -3.276734 -15.604442 0.635116 4.933219 15.111505 -3.551809 33.338493 -0.678443 0.013447 5.542220 0.526737 -6.346547 -7.845304 1.720526 4.124482 -29.046118 -4.509277 -0.090639 1.763959 
42.626076 52.542732 36.956032 -5.342012 1.274778 -122.477722 0.000000 0.000000 0.000000 3.282269 1.357296 -0.781262 7.305581 1.884673 -0.566421 23.819569 -4.570065 0.596921 -3.814922 2.709386 3.687808 -73.731354 11.187264 7.141148 -42.977509 -7.447636 16.055685 3.494790 15.126117 -3.303449 3.546260 5.606606 3.347443 56.047863 -3.832846 17.685894 40.118610 7.192452 19.905991 -5.775946 -9.589583 -3.288366 -15.196001 0.340421 4.985088 13.836130 -3.505285 36.054142 -0.822236 -0.006357 5.861769 1.180750 -5.935789 -7.923769 1.535563 4.037138 -32.300762 -5.003337 -0.112143 2.288244 
42.492531 52.529217 36.853336 -5.005713 1.432649 -119.470131 0.000000 0.000000 0.000000 3.399755 1.103515 0.068535 8.136913 2.411957 -0.644782 22.201012 -4.404293 0.077894 -4.580401 3.059199 3.841944 -75.170395 12.848317 6.637958 -42.755184 -7.346284 15.681560 2.977184 15.395253 -3.360787 4.275796 6.877434 3.421300 54.820896 -4.567760 17.553848 40.631306 7.106629 20.083750 -5.273079 -9.388376 -3.322698 -14.375017 0.264040 4.866969 12.379258 -3.444700 36.583679 -0.245217 0.017680 5.692583 1.989183 -5.442010 -7.869483 1.573752 3.785003 -35.276581 -5.538280 -0.162823 2.940029 
